#N canvas 1217 316 714 577 10;
#X floatatom 175 212 5 0 0 1 amount - -;
#X msg 224 249 1 1 1;
#X msg 209 225 3 2 1;
#X obj 151 430 cube;
#X obj 151 180 rotateXYZ 45 45 45;
#X obj 196 333 loadbang;
#X obj 151 271 scale 0.5;
#X obj 329 38 hsl 128 15 -180 180 0 0 empty empty empty -2 -8 0 10
-262144 -1 -1 6350 1;
#X obj 253 73 * 180;
#X obj 216 73 * 180;
#X obj 179 73 * 180;
#X obj 329 195 pack f f f;
#X obj 403 154 * 180;
#X obj 366 154 * 180;
#X obj 329 154 * 180;
#X obj 452 129 hsl 128 15 -10 10 0 0 empty empty empty -2 -8 0 10 -262144
-1 -1 6350 1;
#X obj 136 12 inlet \$1;
#X obj 204 6 inlet \$2;
#X obj 270 5 inlet \$3;
#X obj 363 1 inlet \$4;
#X obj 480 0 inlet \$5;
#X msg 159 407 draw line;
#X obj 96 399 r style;
#X obj 151 159 gemhead;
#X obj 151 377 alpha;
#X obj 151 309 color 255 255 255 0.25;
#X obj 91 164 loadbang;
#X obj -10 120 * 125;
#X msg 88 199 0.25;
#X obj 30 122 * 125;
#X obj -53 120 * 125;
#X obj 92 223 r opacity;
#X msg 232 409 width 2;
#X obj 234 361 r width;
#X msg 233 383 width \$1;
#X obj -32 180 pack f f f f;
#X obj -53 96 + 0.5;
#X obj -10 98 + 0.5;
#X obj 30 98 + 0.5;
#X obj 305 249 r white;
#X msg 384 287 255 255 255 0.25;
#X obj -114 94 r color;
#X obj -10 243 switch 2;
#X obj -84 138 tgl 15 0 empty empty empty 17 7 0 10 -262144 -1 -1 0
1;
#X msg 162 349 1;
#X connect 0 0 6 1;
#X connect 1 0 6 2;
#X connect 2 0 6 2;
#X connect 4 0 6 0;
#X connect 5 0 21 0;
#X connect 5 0 32 0;
#X connect 5 0 44 0;
#X connect 6 0 25 0;
#X connect 7 0 8 1;
#X connect 7 0 9 1;
#X connect 7 0 10 1;
#X connect 8 0 4 3;
#X connect 9 0 4 2;
#X connect 10 0 4 1;
#X connect 11 0 6 2;
#X connect 12 0 11 2;
#X connect 13 0 11 1;
#X connect 14 0 11 0;
#X connect 15 0 14 1;
#X connect 15 0 13 1;
#X connect 15 0 12 1;
#X connect 16 0 10 0;
#X connect 16 0 14 0;
#X connect 16 0 36 0;
#X connect 17 0 9 0;
#X connect 17 0 13 0;
#X connect 17 0 37 0;
#X connect 18 0 8 0;
#X connect 18 0 12 0;
#X connect 18 0 38 0;
#X connect 19 0 7 0;
#X connect 20 0 15 0;
#X connect 21 0 3 0;
#X connect 22 0 3 0;
#X connect 23 0 4 0;
#X connect 24 0 3 0;
#X connect 25 0 24 0;
#X connect 26 0 28 0;
#X connect 27 0 35 1;
#X connect 28 0 35 3;
#X connect 29 0 35 2;
#X connect 30 0 35 0;
#X connect 31 0 35 3;
#X connect 32 0 3 0;
#X connect 33 0 34 0;
#X connect 34 0 3 0;
#X connect 35 0 42 1;
#X connect 36 0 30 0;
#X connect 37 0 27 0;
#X connect 38 0 29 0;
#X connect 39 0 40 0;
#X connect 40 0 25 1;
#X connect 41 0 43 0;
#X connect 42 0 25 1;
#X connect 43 0 42 0;
#X connect 44 0 24 0;
