#N canvas 874 303 908 731 10;
#N canvas 1130 120 711 483 gemwin 1;
#X obj 67 89 outlet;
#X obj 67 10 inlet;
#X obj 67 41 route create;
#X msg 67 70 set destroy;
#X msg 142 68 set create;
#X msg 228 127 reset \, dimen 1920 1080 \, create \, 1;
#X msg 228 82 reset \, dimen 1360 768 \, create \, 1;
#X msg 228 148 reset \, dimen 800 600 \, create \, 1;
#X msg 228 169 reset \, dimen 640 480 \, create \, 1;
#X obj -55 175 tgl 15 0 empty empty empty 0 -6 0 8 -262144 -1 -1 0
1;
#X msg -55 195 fullscreen \$1;
#X msg 225 9 FSAA 2;
#X msg 139 258 stereo \$1;
#X obj 210 233 vradio 15 1 0 4 empty empty empty 0 -8 0 10 -262144
-1 -1 0;
#X text 233 250 2 screen mode;
#X text 232 264 Red / Green mode;
#X text 233 234 off;
#X text 232 279 Crystal Glasses mode (needs hardware support!);
#X msg 225 31 FSAA 4;
#X msg -53 238 cursor \$1;
#X obj -53 219 tgl 15 0 empty empty empty 0 -6 0 10 -262144 -1 -1 0
1;
#X obj -53 267 tgl 15 0 empty empty empty 0 -6 0 10 -262144 -1 -1 0
1;
#X msg -53 285 menubar \$1;
#X msg -30 267 -1;
#X msg 56 288 0 \, destroy;
#N canvas 107 24 450 300 esc 0;
#X obj 65 20 gemkeyboard;
#X obj 65 167 outlet;
#X obj 89 71 keyname;
#X obj 128 96 sel Escape;
#X obj 65 41 sel 53;
#X obj 189 47 sel Escape;
#X obj 150 22 gemkeyname;
#X connect 0 0 4 0;
#X connect 2 1 3 0;
#X connect 3 0 1 0;
#X connect 4 0 1 0;
#X connect 5 0 1 0;
#X connect 6 1 5 0;
#X restore 56 266 pd esc;
#X obj -27 69 tgl 15 0 empty empty empty 0 -6 0 10 -262144 -1 -1 0
1;
#X msg -27 87 lighting \$1;
#X msg 230 105 reset \, dimen 1600 900 \, create \, 1 \, FSAA 4;
#X obj -69 37 select 0;
#X msg -52 -5 seed 42;
#X obj -69 59 bng 15 250 50 0 empty empty empty 17 7 0 10 -262144 -1
-1;
#X obj -64 -25 metro 500;
#X obj -61 -54 tgl 15 0 empty empty empty 0 -6 0 10 -262144 -1 -1 0
1;
#X obj -68 16 random 5;
#X msg 227 58 reset \, dimen 1024 768 \, create \, 1 \, FSAA 4;
#X msg -31 317 menubar 0;
#X obj 134 231 gemwin 30;
#X msg 225 206 create \, 1;
#X obj 388 -33 bng 15 250 50 0 empty empty empty 17 7 0 10 -262144
-1 -1;
#X obj 427 -34 bng 15 250 50 0 empty empty empty 17 7 0 10 -262144
-1 -1;
#X text 317 -34 Hide menubar;
#X text 446 -34 Show menubar;
#N canvas 0 22 589 500 guts 0;
#X obj 53 446 sys_gui;
#X obj 370 243 sys_gui;
#X obj 172 241 t s s;
#X msg 53 311 \$1 configure -menu "";
#X msg 199 376 set the_mbar [\$1 cget -menu];
#X msg 370 193 \$1 configure -menu $the_mbar;
#X obj 172 201 spigot 1;
#X msg 300 210 1;
#X obj 172 57 inlet;
#X obj 370 59 inlet;
#X obj 172 160 window_name 1;
#X obj 370 105 window_name 1;
#X msg 281 343 0;
#X obj 370 156 spigot;
#X msg 300 129 0;
#X msg 280 87 1;
#X connect 2 0 3 0;
#X connect 2 1 4 0;
#X connect 3 0 0 0;
#X connect 3 0 12 0;
#X connect 4 0 0 0;
#X connect 5 0 1 0;
#X connect 5 0 7 0;
#X connect 6 0 2 0;
#X connect 7 0 6 1;
#X connect 7 0 14 0;
#X connect 8 0 10 0;
#X connect 9 0 11 0;
#X connect 10 0 6 0;
#X connect 11 0 13 0;
#X connect 12 0 6 1;
#X connect 12 0 15 0;
#X connect 13 0 5 0;
#X connect 14 0 13 1;
#X connect 15 0 13 1;
#X restore 388 -9 pd guts;
#X msg 134 172 destroy;
#X msg 281 25 reset \, dimen 800 600 \, create \, 1 \, FSAA 4;
#X obj 302 194 tgl 15 0 empty empty empty 17 7 0 10 -262144 -1 -1 0
1;
#X msg 302 213 color \$1 \$1 \$1;
#X obj 410 194 tgl 15 0 empty empty empty 17 7 0 10 -262144 -1 -1 0
1;
#X msg 410 213 color 0.5 0.5 0.5;
#X obj 367 338 gemhead 999;
#X obj 367 364 syphonserver name;
#X connect 1 0 2 0;
#X connect 2 0 3 0;
#X connect 2 0 5 0;
#X connect 2 1 4 0;
#X connect 2 1 44 0;
#X connect 3 0 0 0;
#X connect 4 0 0 0;
#X connect 5 0 37 0;
#X connect 6 0 37 0;
#X connect 7 0 37 0;
#X connect 8 0 37 0;
#X connect 9 0 10 0;
#X connect 10 0 37 0;
#X connect 11 0 37 0;
#X connect 12 0 37 0;
#X connect 13 0 12 0;
#X connect 18 0 37 0;
#X connect 19 0 37 0;
#X connect 20 0 19 0;
#X connect 21 0 22 0;
#X connect 22 0 37 0;
#X connect 23 0 22 0;
#X connect 24 0 37 0;
#X connect 25 0 24 0;
#X connect 26 0 27 0;
#X connect 27 0 37 0;
#X connect 28 0 37 0;
#X connect 29 0 31 0;
#X connect 30 0 34 0;
#X connect 31 0 26 0;
#X connect 32 0 34 0;
#X connect 33 0 32 0;
#X connect 34 0 29 0;
#X connect 35 0 37 0;
#X connect 36 0 37 0;
#X connect 38 0 37 0;
#X connect 39 0 43 0;
#X connect 40 0 43 1;
#X connect 44 0 37 0;
#X connect 45 0 37 0;
#X connect 46 0 47 0;
#X connect 47 0 37 0;
#X connect 48 0 49 0;
#X connect 49 0 37 0;
#X connect 50 0 51 0;
#X restore 455 266 pd gemwin;
#X msg 456 244 destroy;
#X obj 35 158 vsl 15 128 0 1 0 0 empty empty empty 0 -9 0 10 -204800
-1 -1 0 1;
#X obj 57 158 vsl 15 128 0 1 0 0 empty empty empty 0 -9 0 10 -204800
-1 -1 0 1;
#X obj 79 158 vsl 15 128 0 1 0 0 empty empty empty 0 -9 0 10 -204800
-1 -1 0 1;
#X msg 57 131 0.75;
#X obj 456 191 output~;
#X obj 456 162 hip~ 30;
#X obj 100 158 vsl 15 128 0 360 0 0 empty empty empty 0 -9 0 10 -191407
-1 -1 0 1;
#X obj 121 158 vsl 15 128 0 25 0 0 empty empty empty 0 -9 0 10 -260097
-1 -1 4064 1;
#X floatatom 58 325 5 0 0 0 - - -;
#X obj 142 158 vsl 15 128 0 100 0 0 empty empty empty 0 -9 0 10 -228856
-1 -1 4064 1;
#X obj 178 158 vsl 15 128 0 1 0 0 empty empty empty 0 -9 0 10 -204800
-1 -1 0 1;
#X obj 200 158 vsl 15 128 0 1 0 0 empty empty empty 0 -9 0 10 -204800
-1 -1 0 1;
#X obj 222 158 vsl 15 128 0 1 0 0 empty empty empty 0 -9 0 10 -204800
-1 -1 0 1;
#X msg 200 132 0.75;
#X obj 243 158 vsl 15 128 0 360 0 0 empty empty empty 0 -9 0 10 -191407
-1 -1 0 1;
#X obj 264 158 vsl 15 128 0 10 0 0 empty empty empty 0 -9 0 10 -260097
-1 -1 5080 1;
#X obj 285 158 vsl 15 128 0 100 0 0 empty empty empty 0 -9 0 10 -228856
-1 -1 2032 1;
#X obj 321 158 vsl 15 128 0 1 0 0 empty empty empty 0 -9 0 10 -204800
-1 -1 0 1;
#X obj 343 158 vsl 15 128 0 1 0 0 empty empty empty 0 -9 0 10 -204800
-1 -1 0 1;
#X obj 365 158 vsl 15 128 0 1 0 0 empty empty empty 0 -9 0 10 -204800
-1 -1 0 1;
#X msg 343 131 0.75;
#X obj 386 158 vsl 15 128 0 360 0 0 empty empty empty 0 -9 0 10 -191407
-1 -1 0 1;
#X obj 407 158 vsl 15 128 0 10 0 0 empty empty empty 0 -9 0 10 -260097
-1 -1 2540 1;
#X obj 344 303 Trip \$1;
#X floatatom 344 325 5 0 0 0 - - -;
#X obj 428 158 vsl 15 128 0 100 0 0 empty empty empty 0 -9 0 10 -228856
-1 -1 1016 1;
#X floatatom 100 98 5 0 360 3 ° - -;
#X floatatom 243 94 5 0 360 3 ° - -;
#X floatatom 386 95 5 0 360 3 ° - -;
#X floatatom 121 135 5 0 360 3 ° - -;
#X floatatom 264 136 5 0 360 3 ° - -;
#X floatatom 407 136 5 0 360 3 ° - -;
#X floatatom 243 41 5 0 360 3 ° - -;
#X floatatom 203 40 5 0 0 0 - - -;
#X obj 264 115 * 0.5;
#X obj 407 115 * 0.25;
#X floatatom 285 41 5 0 0 0 - - -;
#X obj 285 76 * 0.5;
#X obj 428 77 * 0.25;
#X floatatom 285 96 5 0 0 0 - - -;
#X floatatom 428 97 5 0 0 0 - - -;
#X obj 426 524 camera;
#X obj 510 438 tgl 15 0 empty empty empty 0 -6 0 8 -262144 -1 -1 0
1;
#X obj 454 441 tgl 15 0 empty empty empty 0 -6 0 8 -262144 -1 -1 0
1;
#X msg 510 456 left \$1;
#X obj 338 442 tgl 15 0 empty empty empty 0 -6 0 8 -262144 -1 -1 0
1;
#X obj 395 441 tgl 15 0 empty empty empty 0 -6 0 8 -262144 -1 -1 0
1;
#X msg 338 458 down \$1;
#X msg 342 595 speed \$1;
#X msg 342 527 distance \$1;
#X msg 395 457 up \$1;
#X msg 454 457 right \$1;
#X obj 175 -2 loadbang;
#X msg 243 1 180;
#X msg 285 20 4;
#X msg 243 20 360;
#X msg 243 -20 90;
#X msg 243 -41 0;
#X floatatom 103 527 0 0 0 0 - - -;
#X obj 103 574 snapshot~;
#X obj 58 347 prepend seed;
#X floatatom 67 624 5 0 0 0 - - -;
#X floatatom 257 518 0 0 0 0 - - -;
#X obj 257 570 snapshot~;
#X floatatom 220 632 5 0 0 0 - - -;
#X obj 59 424 random 2;
#X obj 59 402 select 1;
#X obj 59 448 s chaos2;
#X obj 123 424 random 2;
#X obj 123 448 s chaos3;
#X obj 395 420 r chaos2;
#X obj 454 420 r chaos3;
#X obj 40 530 tgl 15 0 empty empty empty 8 -8 0 10 -262144 -1 -1 1
1;
#X obj 193 526 tgl 15 0 empty empty empty 8 -8 0 10 -262144 -1 -1 1
1;
#X obj -9 326 tgl 15 0 empty empty empty 8 -8 0 10 -262144 -1 -1 0
1;
#X floatatom 200 327 5 0 0 0 - - -;
#X floatatom 59 467 5 0 0 0 - - -;
#X floatatom 123 468 5 0 0 0 - - -;
#X obj -1 424 random 2;
#X obj -1 402 select 0;
#X floatatom -1 468 5 0 0 0 - - -;
#X obj -1 448 s chaos1;
#X obj 123 402 select 2;
#X obj 183 424 random 2;
#X floatatom 183 468 5 0 0 0 - - -;
#X obj 183 402 select 3;
#X obj 183 448 s chaos4;
#X obj 338 421 r chaos1;
#X obj 510 417 r chaos4;
#X obj 554 176 gemhead;
#X floatatom 588 258 5 0 100 1 size - -;
#X obj 554 228 translateXYZ;
#X floatatom 623 206 5 -10 10 0 - - -;
#X floatatom 577 206 3 -5 5 0 - - -;
#X obj 554 279 text2d;
#X floatatom 600 206 3 -5 5 0 - - -;
#X obj 704 52 metro 50;
#X obj 704 31 tgl 15 0 empty empty empty 8 -8 0 10 -262144 -1 -1 0
1;
#X obj 724 79 r chaos1;
#X obj 744 80 r chaos2;
#X obj 769 78 r chaos3;
#X obj 792 83 r chaos4;
#X obj 705 131 s dataf;
#X obj 522 254 r dataf;
#X obj 553 154 tgl 15 0 empty empty empty 8 -8 0 10 -262144 -1 -1 0
1;
#X obj 257 633 s dist;
#X obj 103 638 s sped;
#X obj 807 74 r sped;
#X obj 833 76 r dist;
#X obj 441 390 gemhead;
#X obj 442 371 tgl 15 0 empty empty empty 8 -8 0 10 -262144 -1 -1 0
1;
#X obj 342 569 r sped;
#X obj 342 502 r dist;
#X obj 703 108 pack a a a a a a a;
#X obj 738 193 gemhead;
#X obj 738 301 text2d;
#X obj 738 254 translateXYZ;
#X floatatom 807 230 5 -10 10 0 - - -;
#X floatatom 761 228 3 -5 5 0 - - -;
#X floatatom 784 223 3 -5 5 0 - - -;
#X floatatom 771 280 5 0 0 0 - - -;
#X obj 103 550 phasor~ 0.01;
#X msg 653 236 text MW@SP23;
#X obj 367 -11 random 360;
#X obj 369 -55 tgl 15 0 empty empty empty 17 7 0 10 -262144 -1 -1 0
1;
#X obj 104 618 pow 2;
#X obj 296 -68 tgl 15 0 empty empty empty 17 7 0 10 -262144 -1 -1 0
1;
#X obj 736 174 tgl 15 0 empty empty empty 8 -8 0 10 -262144 -1 -1 0
1;
#X obj 294 -49 metro 1000;
#X obj 639 563 s style;
#X msg 627 530 draw point;
#X obj 625 508 bng 15 250 50 0 empty empty empty 17 7 0 10 -262144
-1 -1;
#X obj 593 412 tgl 15 0 empty empty empty 17 7 0 10 -262144 -1 -1 0
1;
#X text 37 510 C-SPEED;
#X text 190 506 C-DISTANZ;
#X text 459 367 CAMERA (C);
#X text 525 135 (TXT) DATA;
#X text 721 153 (TXT) MAX WEBER;
#X text 585 389 (CUBE) STYLE;
#X obj -10 347 metro 3000;
#X obj 343 18 s deg;
#X obj 827 91 r deg;
#X text 390 -59 (CUBE) DEGREE;
#X obj 297 -29 random 2;
#X obj 297 -7 select 0;
#X obj 662 505 bng 15 250 50 0 empty empty empty 17 7 0 10 -262144
-1 -1;
#X msg 564 531 draw default;
#X msg 697 535 draw line;
#X obj 244 424 random 2;
#X floatatom 244 468 5 0 0 0 - - -;
#X obj 244 448 s chaos4;
#X obj 244 402 select 4;
#X msg 203 20 8;
#X obj 40 551 metro 100;
#X obj 58 373 drunk 5;
#X obj 615 71 select 0 1;
#X obj 618 46 random 2;
#X obj 620 -3 tgl 15 0 empty empty empty 17 7 0 10 -262144 -1 -1 0
1;
#X msg 611 95 1;
#X msg 642 95 0;
#X msg 612 123 0;
#X msg 643 123 1;
#X obj 618 18 metro 120;
#X obj 594 508 bng 15 250 50 0 empty empty empty 17 7 0 10 -262144
-1 -1;
#X obj 194 547 metro 50;
#X obj 725 432 s opacity;
#X obj 664 434 s width;
#X obj 593 460 random 5;
#X floatatom 725 412 5 0 0 0 - - -;
#X floatatom 664 411 5 0 0 0 - - -;
#X obj 840 430 s color;
#X obj 791 431 s white;
#X obj 840 410 tgl 15 0 empty empty empty 17 7 0 10 -262144 -1 -1 0
1;
#X obj 791 413 bng 15 250 50 0 empty empty empty 17 7 0 10 -262144
-1 -1;
#X obj 593 435 metro 3500;
#X obj 597 483 select 0 1 2;
#X obj 257 546 osc~ 0.03;
#X text 11 324 CHAOS;
#X obj 367 -36 metro 2200;
#X obj 103 595 + 0;
#X msg 637 273 text webe.omnibox;
#X obj 256 592 pow 2;
#X msg 536 106 font \$1;
#X obj 536 87 openpanel;
#X obj 536 70 bng 15 250 50 0 empty empty empty 0 -6 0 8 -262144 -1
-1;
#X msg 811 194 font \$1;
#X obj 811 175 openpanel;
#X obj 811 158 bng 15 250 50 0 empty empty empty 0 -6 0 8 -262144 -1
-1;
#X obj 256 613 + 4;
#X obj 58 303 Trip \$1;
#X obj 201 303 Trip \$1;
#X connect 0 0 1 0;
#X connect 1 0 0 0;
#X connect 2 0 191 0;
#X connect 3 0 191 1;
#X connect 4 0 191 2;
#X connect 5 0 2 0;
#X connect 5 0 3 0;
#X connect 5 0 4 0;
#X connect 7 0 6 0;
#X connect 7 0 6 1;
#X connect 8 0 191 3;
#X connect 9 0 191 4;
#X connect 10 0 62 0;
#X connect 11 0 191 5;
#X connect 12 0 192 0;
#X connect 13 0 192 1;
#X connect 14 0 192 2;
#X connect 15 0 12 0;
#X connect 15 0 13 0;
#X connect 15 0 14 0;
#X connect 16 0 192 3;
#X connect 17 0 192 4;
#X connect 18 0 192 5;
#X connect 19 0 25 0;
#X connect 20 0 25 1;
#X connect 21 0 25 2;
#X connect 22 0 19 0;
#X connect 22 0 20 0;
#X connect 22 0 21 0;
#X connect 23 0 25 3;
#X connect 24 0 25 4;
#X connect 25 0 26 0;
#X connect 27 0 25 5;
#X connect 28 0 8 0;
#X connect 29 0 16 0;
#X connect 30 0 23 0;
#X connect 31 0 9 0;
#X connect 32 0 17 0;
#X connect 33 0 24 0;
#X connect 34 0 28 0;
#X connect 34 0 29 0;
#X connect 34 0 30 0;
#X connect 35 0 31 0;
#X connect 35 0 36 0;
#X connect 35 0 37 0;
#X connect 36 0 32 0;
#X connect 37 0 33 0;
#X connect 38 0 11 0;
#X connect 38 0 39 0;
#X connect 38 0 40 0;
#X connect 39 0 41 0;
#X connect 40 0 42 0;
#X connect 41 0 18 0;
#X connect 42 0 27 0;
#X connect 44 0 46 0;
#X connect 45 0 53 0;
#X connect 46 0 43 0;
#X connect 47 0 49 0;
#X connect 48 0 52 0;
#X connect 49 0 43 0;
#X connect 50 0 43 0;
#X connect 51 0 43 0;
#X connect 52 0 43 0;
#X connect 53 0 43 0;
#X connect 54 0 154 0;
#X connect 54 0 56 0;
#X connect 55 0 34 0;
#X connect 56 0 38 0;
#X connect 57 0 34 0;
#X connect 58 0 34 0;
#X connect 59 0 34 0;
#X connect 59 0 142 0;
#X connect 60 0 123 0;
#X connect 61 0 181 0;
#X connect 62 0 156 0;
#X connect 63 0 108 0;
#X connect 64 0 178 0;
#X connect 65 0 183 0;
#X connect 66 0 107 0;
#X connect 67 0 69 0;
#X connect 67 0 78 0;
#X connect 68 0 67 0;
#X connect 70 0 71 0;
#X connect 70 0 79 0;
#X connect 72 0 48 0;
#X connect 73 0 45 0;
#X connect 74 0 155 0;
#X connect 75 0 166 0;
#X connect 76 0 141 0;
#X connect 80 0 82 0;
#X connect 80 0 83 0;
#X connect 81 0 80 0;
#X connect 84 0 70 0;
#X connect 85 0 86 0;
#X connect 85 0 88 0;
#X connect 87 0 85 0;
#X connect 89 0 47 0;
#X connect 90 0 44 0;
#X connect 91 0 93 0;
#X connect 92 0 96 1;
#X connect 93 0 96 0;
#X connect 94 0 93 3;
#X connect 95 0 93 1;
#X connect 97 0 93 2;
#X connect 98 0 115 0;
#X connect 99 0 98 0;
#X connect 100 0 115 0;
#X connect 101 0 115 1;
#X connect 102 0 115 2;
#X connect 103 0 115 3;
#X connect 105 0 96 0;
#X connect 106 0 91 0;
#X connect 109 0 115 4;
#X connect 110 0 115 5;
#X connect 111 0 43 0;
#X connect 112 0 111 0;
#X connect 113 0 50 0;
#X connect 114 0 51 0;
#X connect 115 0 104 0;
#X connect 116 0 118 0;
#X connect 118 0 117 0;
#X connect 119 0 118 3;
#X connect 120 0 118 1;
#X connect 121 0 118 2;
#X connect 122 0 117 1;
#X connect 123 0 61 0;
#X connect 124 0 117 0;
#X connect 125 0 34 0;
#X connect 125 0 142 0;
#X connect 126 0 180 0;
#X connect 127 0 63 0;
#X connect 127 0 108 0;
#X connect 128 0 130 0;
#X connect 129 0 116 0;
#X connect 129 0 124 0;
#X connect 130 0 145 0;
#X connect 132 0 131 0;
#X connect 133 0 132 0;
#X connect 134 0 176 0;
#X connect 141 0 156 0;
#X connect 143 0 115 6;
#X connect 145 0 146 0;
#X connect 146 0 59 0;
#X connect 147 0 149 0;
#X connect 148 0 131 0;
#X connect 149 0 131 0;
#X connect 150 0 151 0;
#X connect 150 0 152 0;
#X connect 153 0 150 0;
#X connect 154 0 35 0;
#X connect 155 0 61 0;
#X connect 156 0 68 0;
#X connect 156 0 81 0;
#X connect 156 0 84 0;
#X connect 156 0 87 0;
#X connect 156 0 153 0;
#X connect 157 0 160 0;
#X connect 157 0 162 0;
#X connect 157 1 161 0;
#X connect 157 1 163 0;
#X connect 158 0 157 0;
#X connect 159 0 164 0;
#X connect 160 0 91 0;
#X connect 161 0 91 0;
#X connect 162 0 116 0;
#X connect 163 0 116 0;
#X connect 164 0 158 0;
#X connect 165 0 148 0;
#X connect 166 0 65 0;
#X connect 169 0 177 0;
#X connect 170 0 167 0;
#X connect 171 0 168 0;
#X connect 174 0 172 0;
#X connect 175 0 173 0;
#X connect 176 0 169 0;
#X connect 177 0 165 0;
#X connect 177 1 165 0;
#X connect 177 3 147 0;
#X connect 178 0 65 0;
#X connect 180 0 125 0;
#X connect 181 0 127 0;
#X connect 182 0 117 0;
#X connect 183 0 190 0;
#X connect 184 0 96 0;
#X connect 185 0 184 0;
#X connect 186 0 185 0;
#X connect 187 0 117 0;
#X connect 188 0 187 0;
#X connect 189 0 188 0;
#X connect 190 0 107 0;
#X connect 190 0 66 0;
#X connect 191 0 10 0;
#X connect 192 0 77 0;
