#N canvas 368 23 958 1035 10;
#X obj -76 -186 snapshot~;
#X obj -2 -189 snapshot~;
#X obj 97 -303 loadbang;
#X obj 281 -122 vsl 15 128 0 360 0 0 empty empty Degree 0 -9 0 10 -262144
-1 -1 0 1;
#X obj 346 -102 vsl 15 128 0 10 0 0 empty empty Scale 0 -9 0 10 -262144
-1 -1 2540 1;
#X obj -18 69 *;
#X obj -2 103 *;
#X obj -41 141 anicube;
#X obj 95 -275 metro 30;
#X obj 69 -188 snapshot~;
#X obj 159 -139 * 1;
#X obj 207 -139 * 1;
#X obj 70 -217 osc~ 0.05;
#X obj -140 -205 loadbang;
#X obj -140 -178 metro 30;
#X obj 183 -139 * 1;
#X obj -200 -296 f \$0;
#X floatatom -200 -264 5 0 0 0 - - -;
#N canvas 0 22 450 278 (subpatch) 0;
#X array \$0-v1 10 float 3;
#A 0 0.754927 0.754908 0.75489 0.754871 0.754852 0.754833 0.754815
0.754796 0.754777 0.754758;
#X coords 0 1 10 -1 200 140 1 0 0;
#X restore 531 -127 graph;
#N canvas 0 22 450 278 (subpatch) 0;
#X array \$0-v2 10 float 3;
#A 0 -0.936723 -0.936718 -0.936713 -0.936708 -0.936702 -0.936697 -0.936692
-0.936687 -0.936682 -0.936677;
#X coords 0 1 10 -1 200 140 1 0 0;
#X restore 531 31 graph;
#N canvas 0 22 450 278 (subpatch) 0;
#X array \$0-v3 10 float 3;
#A 0 -0.177855 -0.177862 -0.177869 -0.177876 -0.177883 -0.17789 -0.177897
-0.177904 -0.177911 -0.177918;
#X coords 0 1 10 -1 200 140 1 0 0;
#X restore 531 189 graph;
#X obj -22 -33 outlet \$1;
#X obj 21 -57 outlet \$2;
#X obj 57 -89 outlet \$3;
#X obj 179 95 *;
#X obj 195 129 *;
#X obj 156 167 anicube;
#X obj 194 69 r \$0-scl1;
#X obj 210 105 r \$0-scl2;
#X obj 32 106 r \$0-v1;
#X obj 80 106 r \$0-v3;
#X obj 128 106 r \$0-v2;
#X obj -7 221 *;
#X obj 9 255 *;
#X obj -30 293 anicube;
#X obj -6 164 r \$0-v1;
#X obj 8 195 r \$0-scl1;
#X obj 24 231 r \$0-scl2;
#X obj -154 232 r \$0-v2;
#X obj -106 232 r \$0-v1;
#X obj -58 232 r \$0-v3;
#X obj 207 256 *;
#X obj 223 290 *;
#X obj 184 328 anicube;
#X obj 208 199 r \$0-v1;
#X obj 222 230 r \$0-scl1;
#X obj 238 266 r \$0-scl2;
#X obj 60 267 r \$0-v2;
#X obj 108 267 r \$0-v3;
#X obj 156 267 r \$0-v1;
#X obj -14 588 *;
#X obj 2 622 *;
#X obj -37 660 anicube;
#X obj 1 562 r \$0-scl1;
#X obj 17 598 r \$0-scl2;
#X obj -161 599 r \$0-v1;
#X obj -113 599 r \$0-v2;
#X obj -65 599 r \$0-v3;
#X obj -13 531 r \$0-v2;
#X obj -16 373 *;
#X obj 0 407 *;
#X obj -39 445 anicube;
#X obj -15 316 r \$0-v1;
#X obj -1 347 r \$0-scl1;
#X obj 15 383 r \$0-scl2;
#X obj -163 384 r \$0-v3;
#X obj -115 384 r \$0-v1;
#X obj -67 384 r \$0-v2;
#X obj 220 408 *;
#X obj 236 442 *;
#X obj 197 480 anicube;
#X obj 221 351 r \$0-v1;
#X obj 235 382 r \$0-scl1;
#X obj 251 418 r \$0-scl2;
#X obj 73 419 r \$0-v3;
#X obj 121 419 r \$0-v2;
#X obj 169 419 r \$0-v1;
#X obj 255 585 *;
#X obj 271 619 *;
#X obj 232 657 anicube;
#X obj 270 559 r \$0-scl1;
#X obj 286 595 r \$0-scl2;
#X obj 108 596 r \$0-v1;
#X obj 256 528 r \$0-v2;
#X obj 156 596 r \$0-v3;
#X obj 204 596 r \$0-v2;
#X obj -14 739 *;
#X obj 2 773 *;
#X obj -37 811 anicube;
#X obj 1 713 r \$0-scl1;
#X obj 17 749 r \$0-scl2;
#X obj -65 750 r \$0-v3;
#X obj -13 682 r \$0-v2;
#X obj -161 750 r \$0-v2;
#X obj -113 750 r \$0-v1;
#X obj 233 739 *;
#X obj 249 773 *;
#X obj 210 811 anicube;
#X obj 248 713 r \$0-scl1;
#X obj 264 749 r \$0-scl2;
#X obj 234 682 r \$0-v2;
#X obj 86 750 r \$0-v2;
#X obj 134 750 r \$0-v3;
#X obj 182 750 r \$0-v1;
#X obj -24 1109 *;
#X obj -8 1143 *;
#X obj -47 1181 anicube;
#X obj -9 1083 r \$0-scl1;
#X obj 7 1119 r \$0-scl2;
#X obj -171 1120 r \$0-v1;
#X obj -123 1120 r \$0-v2;
#X obj -75 1120 r \$0-v3;
#X obj -23 1052 r \$0-v3;
#X obj 235 1111 *;
#X obj 251 1145 *;
#X obj 212 1183 anicube;
#X obj 250 1085 r \$0-scl1;
#X obj 266 1121 r \$0-scl2;
#X obj 88 1122 r \$0-v1;
#X obj 236 1054 r \$0-v3;
#X obj 136 1122 r \$0-v3;
#X obj 184 1122 r \$0-v2;
#X obj -32 1278 *;
#X obj -16 1312 *;
#X obj -55 1350 anicube;
#X obj -17 1252 r \$0-scl1;
#X obj -1 1288 r \$0-scl2;
#X obj -31 1221 r \$0-v3;
#X obj -179 1289 r \$0-v2;
#X obj -131 1289 r \$0-v1;
#X obj -83 1289 r \$0-v3;
#X obj 227 1276 *;
#X obj 243 1310 *;
#X obj 204 1348 anicube;
#X obj 242 1250 r \$0-scl1;
#X obj 258 1286 r \$0-scl2;
#X obj 228 1219 r \$0-v3;
#X obj 80 1287 r \$0-v2;
#X obj 128 1287 r \$0-v3;
#X obj 176 1287 r \$0-v1;
#X obj -25 1441 *;
#X obj -9 1475 *;
#X obj -48 1513 anicube;
#X obj -10 1415 r \$0-scl1;
#X obj 6 1451 r \$0-scl2;
#X obj -24 1384 r \$0-v3;
#X obj -124 1452 r \$0-v1;
#X obj -172 1452 r \$0-v3;
#X obj -76 1452 r \$0-v2;
#X obj 227 1440 *;
#X obj 243 1474 *;
#X obj 204 1512 anicube;
#X obj 242 1414 r \$0-scl1;
#X obj 258 1450 r \$0-scl2;
#X obj 228 1383 r \$0-v3;
#X obj 80 1451 r \$0-v3;
#X obj 128 1451 r \$0-v2;
#X obj 176 1451 r \$0-v1;
#X obj 13 79 r scl2;
#X obj 281 74 s \$0-scl1;
#X obj 346 36 s \$0-scl2;
#X obj -17 12 r \$0-v1;
#X obj -3 43 r \$0scl1;
#X obj 182 -95 s \$0-v2;
#X obj 206 -76 s \$0-v3;
#X obj -41 -120 tabwrite~ \$0-v2;
#X obj 48 -135 tabwrite~ \$0-v3;
#X obj -150 -126 tabwrite~ \$0-v1;
#X obj 158 -114 s \$0-v1;
#X obj -165 80 r \$0-v1;
#X obj -117 80 r \$0-v2;
#X obj -69 80 r \$0-v3;
#X obj 180 38 r \$0-v1;
#X obj 174 -212 inlet \$1;
#X obj 198 -188 inlet \$2;
#X obj 222 -167 inlet \$3;
#X obj 281 -160 inlet \$4;
#X obj 346 -140 inlet \$5;
#X obj -200 -238 outlet \$4;
#X obj -200 -322 loadbang;
#X obj -75 -215 osc~ 0.2;
#X obj -1 -218 osc~ 0.1;
#X obj -1 -241 / 2;
#X obj 70 -239 / 4;
#X obj 412 -310 inlet \$6;
#X obj -24 -301 / 100;
#X obj 261 44 random 360;
#X obj 207 -29 loadbang;
#X obj 261 19 bng 15 250 50 0 empty empty empty 17 7 0 10 -262144 -1
-1;
#X msg 207 -7 seed 777;
#X obj -26 899 *;
#X obj -10 933 *;
#X obj -49 971 anicube;
#X obj -11 873 r \$0-scl1;
#X obj 5 909 r \$0-scl2;
#X obj -25 842 r \$0-v2;
#X obj -173 910 r \$0-v3;
#X obj -125 910 r \$0-v2;
#X obj -77 910 r \$0-v1;
#X obj 246 898 *;
#X obj 262 932 *;
#X obj 223 970 anicube;
#X obj 261 872 r \$0-scl1;
#X obj 277 908 r \$0-scl2;
#X obj 247 841 r \$0-v2;
#X obj 99 909 r \$0-v3;
#X obj 147 909 r \$0-v2;
#X obj 195 909 r \$0-v1;
#X connect 0 0 10 0;
#X connect 0 0 21 0;
#X connect 1 0 15 0;
#X connect 1 0 22 0;
#X connect 2 0 8 0;
#X connect 3 0 159 0;
#X connect 4 0 160 0;
#X connect 5 0 7 3;
#X connect 6 0 7 4;
#X connect 8 0 1 0;
#X connect 8 0 9 0;
#X connect 8 0 0 0;
#X connect 9 0 11 0;
#X connect 9 0 23 0;
#X connect 10 0 168 0;
#X connect 11 0 164 0;
#X connect 12 0 9 0;
#X connect 12 0 166 0;
#X connect 13 0 14 0;
#X connect 14 0 165 0;
#X connect 14 0 166 0;
#X connect 14 0 167 0;
#X connect 15 0 163 0;
#X connect 16 0 17 0;
#X connect 17 0 178 0;
#X connect 24 0 26 3;
#X connect 25 0 26 4;
#X connect 27 0 24 1;
#X connect 28 0 25 1;
#X connect 29 0 26 0;
#X connect 30 0 26 1;
#X connect 31 0 26 2;
#X connect 32 0 34 3;
#X connect 33 0 34 4;
#X connect 35 0 32 0;
#X connect 35 0 33 0;
#X connect 36 0 32 1;
#X connect 37 0 33 1;
#X connect 38 0 34 0;
#X connect 39 0 34 1;
#X connect 40 0 34 2;
#X connect 41 0 43 3;
#X connect 42 0 43 4;
#X connect 44 0 41 0;
#X connect 44 0 42 0;
#X connect 45 0 41 1;
#X connect 46 0 42 1;
#X connect 47 0 43 0;
#X connect 48 0 43 1;
#X connect 49 0 43 2;
#X connect 50 0 52 3;
#X connect 51 0 52 4;
#X connect 53 0 50 1;
#X connect 54 0 51 1;
#X connect 55 0 52 0;
#X connect 56 0 52 1;
#X connect 57 0 52 2;
#X connect 58 0 50 0;
#X connect 58 0 51 0;
#X connect 59 0 61 3;
#X connect 60 0 61 4;
#X connect 62 0 59 0;
#X connect 62 0 60 0;
#X connect 63 0 59 1;
#X connect 64 0 60 1;
#X connect 65 0 61 0;
#X connect 66 0 61 1;
#X connect 67 0 61 2;
#X connect 68 0 70 3;
#X connect 69 0 70 4;
#X connect 71 0 68 0;
#X connect 71 0 69 0;
#X connect 72 0 68 1;
#X connect 73 0 69 1;
#X connect 74 0 70 0;
#X connect 75 0 70 1;
#X connect 76 0 70 2;
#X connect 77 0 79 3;
#X connect 78 0 79 4;
#X connect 80 0 77 1;
#X connect 81 0 78 1;
#X connect 82 0 79 0;
#X connect 83 0 77 0;
#X connect 83 0 78 0;
#X connect 84 0 79 1;
#X connect 85 0 79 2;
#X connect 86 0 88 3;
#X connect 87 0 88 4;
#X connect 89 0 86 1;
#X connect 90 0 87 1;
#X connect 91 0 88 2;
#X connect 92 0 86 0;
#X connect 92 0 87 0;
#X connect 93 0 88 0;
#X connect 94 0 88 1;
#X connect 95 0 97 3;
#X connect 96 0 97 4;
#X connect 98 0 95 1;
#X connect 99 0 96 1;
#X connect 100 0 95 0;
#X connect 100 0 96 0;
#X connect 101 0 97 0;
#X connect 102 0 97 1;
#X connect 103 0 97 2;
#X connect 104 0 106 3;
#X connect 105 0 106 4;
#X connect 107 0 104 1;
#X connect 108 0 105 1;
#X connect 109 0 106 0;
#X connect 110 0 106 1;
#X connect 111 0 106 2;
#X connect 112 0 104 0;
#X connect 112 0 105 0;
#X connect 113 0 115 3;
#X connect 114 0 115 4;
#X connect 116 0 113 1;
#X connect 117 0 114 1;
#X connect 118 0 115 0;
#X connect 119 0 113 0;
#X connect 119 0 114 0;
#X connect 120 0 115 1;
#X connect 121 0 115 2;
#X connect 122 0 124 3;
#X connect 123 0 124 4;
#X connect 125 0 122 1;
#X connect 126 0 123 1;
#X connect 127 0 122 0;
#X connect 127 0 123 0;
#X connect 128 0 124 0;
#X connect 129 0 124 1;
#X connect 130 0 124 2;
#X connect 131 0 133 3;
#X connect 132 0 133 4;
#X connect 134 0 131 1;
#X connect 135 0 132 1;
#X connect 136 0 131 0;
#X connect 136 0 132 0;
#X connect 137 0 133 0;
#X connect 138 0 133 1;
#X connect 139 0 133 2;
#X connect 140 0 142 3;
#X connect 141 0 142 4;
#X connect 143 0 140 1;
#X connect 144 0 141 1;
#X connect 145 0 140 0;
#X connect 145 0 141 0;
#X connect 146 0 142 1;
#X connect 147 0 142 0;
#X connect 148 0 142 2;
#X connect 149 0 151 3;
#X connect 150 0 151 4;
#X connect 152 0 149 1;
#X connect 153 0 150 1;
#X connect 154 0 149 0;
#X connect 154 0 150 0;
#X connect 155 0 151 0;
#X connect 156 0 151 1;
#X connect 157 0 151 2;
#X connect 158 0 6 1;
#X connect 161 0 5 0;
#X connect 161 0 6 0;
#X connect 162 0 5 1;
#X connect 169 0 7 0;
#X connect 170 0 7 1;
#X connect 171 0 7 2;
#X connect 172 0 24 0;
#X connect 172 0 25 0;
#X connect 173 0 10 1;
#X connect 174 0 15 1;
#X connect 175 0 11 1;
#X connect 176 0 3 0;
#X connect 177 0 4 0;
#X connect 179 0 16 0;
#X connect 180 0 0 0;
#X connect 180 0 167 0;
#X connect 181 0 1 0;
#X connect 181 0 165 0;
#X connect 182 0 181 0;
#X connect 183 0 12 0;
#X connect 184 0 185 0;
#X connect 185 0 183 0;
#X connect 185 0 182 0;
#X connect 185 0 180 0;
#X connect 187 0 189 0;
#X connect 188 0 186 0;
#X connect 189 0 186 0;
#X connect 190 0 192 3;
#X connect 191 0 192 4;
#X connect 193 0 190 1;
#X connect 194 0 191 1;
#X connect 195 0 190 0;
#X connect 195 0 191 0;
#X connect 196 0 192 0;
#X connect 197 0 192 1;
#X connect 198 0 192 2;
#X connect 199 0 201 3;
#X connect 200 0 201 4;
#X connect 202 0 199 1;
#X connect 203 0 200 1;
#X connect 204 0 199 0;
#X connect 204 0 200 0;
#X connect 205 0 201 0;
#X connect 206 0 201 1;
#X connect 207 0 201 2;
